<mxfile host="65bd71144e">
    <diagram id="A_tYOe9iZ1WcpGx81PBD" name="Page-1">
        <mxGraphModel dx="946" dy="1781" grid="1" gridSize="10" guides="1" tooltips="1" connect="1" arrows="1" fold="1" page="1" pageScale="1" pageWidth="827" pageHeight="1169" math="0" shadow="0">
            <root>
                <mxCell id="0"/>
                <mxCell id="1" parent="0"/>
                <mxCell id="213" style="edgeStyle=none;html=1;entryX=0.5;entryY=0;entryDx=0;entryDy=0;fontSize=13;" parent="1" source="24" target="212" edge="1">
                    <mxGeometry relative="1" as="geometry"/>
                </mxCell>
                <mxCell id="24" value="&lt;font style=&quot;font-size: 18px&quot;&gt;Start&lt;/font&gt;" style="strokeWidth=2;html=1;shape=mxgraph.flowchart.terminator;whiteSpace=wrap;" parent="1" vertex="1">
                    <mxGeometry x="40" width="160" height="80" as="geometry"/>
                </mxCell>
                <mxCell id="25" value="&lt;font style=&quot;font-size: 18px&quot;&gt;Stop&lt;/font&gt;" style="strokeWidth=2;html=1;shape=mxgraph.flowchart.terminator;whiteSpace=wrap;" parent="1" vertex="1">
                    <mxGeometry x="1240.5" width="160" height="80" as="geometry"/>
                </mxCell>
                <mxCell id="59" style="edgeStyle=none;html=1;entryX=0.5;entryY=1;entryDx=0;entryDy=0;entryPerimeter=0;fontFamily=Helvetica;fontSize=15;fontColor=default;" parent="1" source="47" target="25" edge="1">
                    <mxGeometry relative="1" as="geometry"/>
                </mxCell>
                <mxCell id="47" value="Show the &lt;br&gt;program &lt;br&gt;as done" style="shape=parallelogram;html=1;strokeWidth=2;perimeter=parallelogramPerimeter;whiteSpace=wrap;rounded=1;arcSize=12;size=0.23;fontSize=18;" parent="1" vertex="1">
                    <mxGeometry x="1240.5" y="160" width="160" height="80" as="geometry"/>
                </mxCell>
                <mxCell id="208" style="edgeStyle=none;html=1;" parent="1" source="120" target="193" edge="1">
                    <mxGeometry relative="1" as="geometry"/>
                </mxCell>
                <mxCell id="209" style="edgeStyle=none;html=1;entryX=0.5;entryY=0;entryDx=0;entryDy=0;" parent="1" source="120" target="196" edge="1">
                    <mxGeometry relative="1" as="geometry"/>
                </mxCell>
                <mxCell id="120" value="&lt;font style=&quot;font-size: 18px&quot;&gt;try&lt;br style=&quot;font-size: 18px&quot;&gt;&lt;/font&gt;" style="rhombus;whiteSpace=wrap;html=1;rounded=1;fontFamily=Helvetica;fontSize=18;fontColor=default;strokeColor=default;strokeWidth=2;fillColor=default;" parent="1" vertex="1">
                    <mxGeometry x="240" y="320" width="160" height="160" as="geometry"/>
                </mxCell>
                <mxCell id="122" value="&lt;font style=&quot;font-size: 15px&quot;&gt;Yes&lt;/font&gt;" style="text;html=1;align=center;verticalAlign=middle;resizable=0;points=[];autosize=1;strokeColor=none;fillColor=none;fontSize=8;fontFamily=Helvetica;fontColor=default;" parent="1" vertex="1">
                    <mxGeometry x="320" y="480" width="40" height="20" as="geometry"/>
                </mxCell>
                <mxCell id="123" value="&lt;font style=&quot;font-size: 15px&quot;&gt;execption&lt;br&gt;&lt;/font&gt;" style="text;html=1;align=center;verticalAlign=middle;resizable=0;points=[];autosize=1;strokeColor=none;fillColor=none;fontSize=8;fontFamily=Helvetica;fontColor=default;" parent="1" vertex="1">
                    <mxGeometry x="170" y="410" width="80" height="20" as="geometry"/>
                </mxCell>
                <mxCell id="220" style="edgeStyle=orthogonalEdgeStyle;rounded=0;html=1;fontSize=18;" parent="1" source="180" target="219" edge="1">
                    <mxGeometry relative="1" as="geometry"/>
                </mxCell>
                <mxCell id="180" value="number_of_loops_integer = int(number_of_loops_text)" style="rounded=1;whiteSpace=wrap;html=1;strokeWidth=2;fontSize=13;" parent="1" vertex="1">
                    <mxGeometry x="240" y="640" width="160" height="80" as="geometry"/>
                </mxCell>
                <mxCell id="216" style="edgeStyle=orthogonalEdgeStyle;rounded=0;html=1;entryX=0;entryY=0.5;entryDx=0;entryDy=0;fontSize=13;" parent="1" source="193" target="212" edge="1">
                    <mxGeometry relative="1" as="geometry">
                        <Array as="points">
                            <mxPoint x="20" y="400"/>
                            <mxPoint x="20" y="200"/>
                        </Array>
                    </mxGeometry>
                </mxCell>
                <mxCell id="193" value="Show that the &lt;br style=&quot;font-size: 16px&quot;&gt;input is not a &lt;br style=&quot;font-size: 16px&quot;&gt;integer" style="shape=parallelogram;html=1;strokeWidth=2;perimeter=parallelogramPerimeter;whiteSpace=wrap;rounded=1;arcSize=12;size=0.23;fontSize=16;" parent="1" vertex="1">
                    <mxGeometry x="40" y="360" width="160" height="80" as="geometry"/>
                </mxCell>
                <mxCell id="197" style="edgeStyle=none;html=1;entryX=0.5;entryY=0;entryDx=0;entryDy=0;fontSize=16;" parent="1" source="196" target="180" edge="1">
                    <mxGeometry relative="1" as="geometry"/>
                </mxCell>
                <mxCell id="196" value="Set&lt;br&gt;the number&lt;br&gt;of loops" style="shape=parallelogram;html=1;strokeWidth=2;perimeter=parallelogramPerimeter;whiteSpace=wrap;rounded=1;arcSize=12;size=0.23;fontSize=18;" parent="1" vertex="1">
                    <mxGeometry x="240" y="520" width="160" height="80" as="geometry"/>
                </mxCell>
                <mxCell id="214" style="edgeStyle=orthogonalEdgeStyle;html=1;entryX=0.5;entryY=0;entryDx=0;entryDy=0;fontSize=13;rounded=0;" parent="1" source="212" target="120" edge="1">
                    <mxGeometry relative="1" as="geometry">
                        <Array as="points">
                            <mxPoint x="120" y="300"/>
                            <mxPoint x="320" y="300"/>
                        </Array>
                    </mxGeometry>
                </mxCell>
                <mxCell id="225" style="edgeStyle=orthogonalEdgeStyle;rounded=0;html=1;entryX=0;entryY=0.5;entryDx=0;entryDy=0;fontSize=18;endArrow=classic;endFill=1;" parent="1" source="212" target="224" edge="1">
                    <mxGeometry relative="1" as="geometry"/>
                </mxCell>
                <mxCell id="212" value="&lt;font style=&quot;font-size: 18px&quot;&gt;while True&lt;br style=&quot;font-size: 18px&quot;&gt;&lt;/font&gt;" style="rhombus;whiteSpace=wrap;html=1;rounded=1;fontFamily=Helvetica;fontSize=18;fontColor=default;strokeColor=default;strokeWidth=2;fillColor=default;" parent="1" vertex="1">
                    <mxGeometry x="40" y="120" width="160" height="160" as="geometry"/>
                </mxCell>
                <mxCell id="215" value="&lt;font style=&quot;font-size: 15px&quot;&gt;Yes&lt;/font&gt;" style="text;html=1;align=center;verticalAlign=middle;resizable=0;points=[];autosize=1;strokeColor=none;fillColor=none;fontSize=8;fontFamily=Helvetica;fontColor=default;" parent="1" vertex="1">
                    <mxGeometry x="120" y="280" width="40" height="20" as="geometry"/>
                </mxCell>
                <mxCell id="218" value="&lt;font style=&quot;font-size: 15px&quot;&gt;No&lt;br&gt;&lt;/font&gt;" style="text;html=1;align=center;verticalAlign=middle;resizable=0;points=[];autosize=1;strokeColor=none;fillColor=none;fontSize=8;fontFamily=Helvetica;fontColor=default;" parent="1" vertex="1">
                    <mxGeometry x="200" y="180" width="30" height="20" as="geometry"/>
                </mxCell>
                <mxCell id="221" style="edgeStyle=orthogonalEdgeStyle;rounded=0;html=1;fontSize=18;endArrow=none;endFill=0;" parent="1" source="219" edge="1">
                    <mxGeometry relative="1" as="geometry">
                        <mxPoint x="20" y="400" as="targetPoint"/>
                    </mxGeometry>
                </mxCell>
                <mxCell id="219" value="break" style="shape=parallelogram;html=1;strokeWidth=2;perimeter=parallelogramPerimeter;whiteSpace=wrap;rounded=1;arcSize=12;size=0.23;fontSize=18;" parent="1" vertex="1">
                    <mxGeometry x="40" y="640" width="160" height="80" as="geometry"/>
                </mxCell>
                <mxCell id="229" style="edgeStyle=orthogonalEdgeStyle;rounded=0;html=1;entryX=0;entryY=0.5;entryDx=0;entryDy=0;fontSize=10;endArrow=classic;endFill=1;" parent="1" source="224" target="226" edge="1">
                    <mxGeometry relative="1" as="geometry"/>
                </mxCell>
                <mxCell id="224" value="number_array = []" style="rounded=1;whiteSpace=wrap;html=1;strokeWidth=2;fontSize=18;" parent="1" vertex="1">
                    <mxGeometry x="240" y="160" width="160" height="80" as="geometry"/>
                </mxCell>
                <mxCell id="228" style="edgeStyle=orthogonalEdgeStyle;rounded=0;html=1;entryX=0.5;entryY=0;entryDx=0;entryDy=0;fontSize=10;endArrow=classic;endFill=1;" parent="1" source="226" target="227" edge="1">
                    <mxGeometry relative="1" as="geometry"/>
                </mxCell>
                <mxCell id="251" style="edgeStyle=orthogonalEdgeStyle;rounded=0;html=1;entryX=0;entryY=0.5;entryDx=0;entryDy=0;fontSize=14;" edge="1" parent="1" source="226" target="250">
                    <mxGeometry relative="1" as="geometry"/>
                </mxCell>
                <mxCell id="226" value="&lt;font style=&quot;font-size: 10px;&quot;&gt;for counter in &lt;br style=&quot;font-size: 10px;&quot;&gt;range(&lt;br style=&quot;font-size: 10px;&quot;&gt;0, number_of_loops_integer&lt;br style=&quot;font-size: 10px;&quot;&gt;)&lt;br style=&quot;font-size: 10px;&quot;&gt;&lt;/font&gt;" style="rhombus;whiteSpace=wrap;html=1;rounded=1;fontFamily=Helvetica;fontSize=10;fontColor=default;strokeColor=default;strokeWidth=2;fillColor=default;" parent="1" vertex="1">
                    <mxGeometry x="440" y="120" width="160" height="160" as="geometry"/>
                </mxCell>
                <mxCell id="232" style="edgeStyle=orthogonalEdgeStyle;rounded=0;html=1;entryX=0.5;entryY=0;entryDx=0;entryDy=0;fontSize=13;endArrow=classic;endFill=1;" parent="1" source="227" target="231" edge="1">
                    <mxGeometry relative="1" as="geometry"/>
                </mxCell>
                <mxCell id="248" style="edgeStyle=orthogonalEdgeStyle;rounded=0;html=1;entryX=0;entryY=0.5;entryDx=0;entryDy=0;fontSize=14;" edge="1" parent="1" source="227" target="247">
                    <mxGeometry relative="1" as="geometry"/>
                </mxCell>
                <mxCell id="227" value="&lt;font style=&quot;font-size: 18px&quot;&gt;try&lt;br style=&quot;font-size: 18px&quot;&gt;&lt;/font&gt;" style="rhombus;whiteSpace=wrap;html=1;rounded=1;fontFamily=Helvetica;fontSize=18;fontColor=default;strokeColor=default;strokeWidth=2;fillColor=default;" parent="1" vertex="1">
                    <mxGeometry x="440" y="320" width="160" height="160" as="geometry"/>
                </mxCell>
                <mxCell id="230" value="&lt;font style=&quot;font-size: 15px&quot;&gt;Yes&lt;/font&gt;" style="text;html=1;align=center;verticalAlign=middle;resizable=0;points=[];autosize=1;strokeColor=none;fillColor=none;fontSize=8;fontFamily=Helvetica;fontColor=default;" parent="1" vertex="1">
                    <mxGeometry x="520" y="280" width="40" height="20" as="geometry"/>
                </mxCell>
                <mxCell id="235" style="edgeStyle=orthogonalEdgeStyle;rounded=0;html=1;entryX=0.5;entryY=0;entryDx=0;entryDy=0;fontSize=18;endArrow=classic;endFill=1;" parent="1" source="231" target="234" edge="1">
                    <mxGeometry relative="1" as="geometry"/>
                </mxCell>
                <mxCell id="231" value="Show the number&lt;br style=&quot;font-size: 13px;&quot;&gt;of loops remaining" style="shape=parallelogram;html=1;strokeWidth=2;perimeter=parallelogramPerimeter;whiteSpace=wrap;rounded=1;arcSize=12;size=0.23;fontSize=13;" parent="1" vertex="1">
                    <mxGeometry x="440" y="520" width="160" height="80" as="geometry"/>
                </mxCell>
                <mxCell id="233" value="&lt;font style=&quot;font-size: 15px&quot;&gt;Yes&lt;/font&gt;" style="text;html=1;align=center;verticalAlign=middle;resizable=0;points=[];autosize=1;strokeColor=none;fillColor=none;fontSize=8;fontFamily=Helvetica;fontColor=default;" parent="1" vertex="1">
                    <mxGeometry x="520" y="480" width="40" height="20" as="geometry"/>
                </mxCell>
                <mxCell id="237" style="edgeStyle=orthogonalEdgeStyle;rounded=0;html=1;fontSize=18;endArrow=classic;endFill=1;entryX=0.5;entryY=0;entryDx=0;entryDy=0;" parent="1" source="234" target="236" edge="1">
                    <mxGeometry relative="1" as="geometry">
                        <mxPoint x="630" y="679.9999999999995" as="targetPoint"/>
                    </mxGeometry>
                </mxCell>
                <mxCell id="234" value="Set&lt;br&gt;number text" style="shape=parallelogram;html=1;strokeWidth=2;perimeter=parallelogramPerimeter;whiteSpace=wrap;rounded=1;arcSize=12;size=0.23;fontSize=18;" parent="1" vertex="1">
                    <mxGeometry x="440" y="640" width="160" height="80" as="geometry"/>
                </mxCell>
                <mxCell id="239" style="edgeStyle=none;html=1;entryX=0;entryY=0.5;entryDx=0;entryDy=0;fontSize=17;" edge="1" parent="1" source="236" target="238">
                    <mxGeometry relative="1" as="geometry"/>
                </mxCell>
                <mxCell id="236" value="number_value = float(number_text)" style="rounded=1;whiteSpace=wrap;html=1;strokeWidth=2;fontSize=18;" parent="1" vertex="1">
                    <mxGeometry x="440" y="760" width="160" height="80" as="geometry"/>
                </mxCell>
                <mxCell id="241" style="edgeStyle=none;html=1;entryX=0.5;entryY=1;entryDx=0;entryDy=0;fontSize=17;" edge="1" parent="1" source="238" target="240">
                    <mxGeometry relative="1" as="geometry"/>
                </mxCell>
                <mxCell id="244" style="edgeStyle=orthogonalEdgeStyle;html=1;entryX=1;entryY=0.5;entryDx=0;entryDy=0;fontSize=14;rounded=0;" edge="1" parent="1" source="238" target="242">
                    <mxGeometry relative="1" as="geometry">
                        <Array as="points">
                            <mxPoint x="820" y="800"/>
                            <mxPoint x="820" y="520"/>
                        </Array>
                    </mxGeometry>
                </mxCell>
                <mxCell id="238" value="&lt;font style=&quot;font-size: 17px;&quot;&gt;if number_value&lt;br style=&quot;font-size: 17px;&quot;&gt;% 1 == 0&lt;br style=&quot;font-size: 17px;&quot;&gt;&lt;/font&gt;" style="rhombus;whiteSpace=wrap;html=1;rounded=1;fontFamily=Helvetica;fontSize=17;fontColor=default;strokeColor=default;strokeWidth=2;fillColor=default;" vertex="1" parent="1">
                    <mxGeometry x="640" y="720" width="160" height="160" as="geometry"/>
                </mxCell>
                <mxCell id="243" style="edgeStyle=none;html=1;entryX=0.5;entryY=1;entryDx=0;entryDy=0;fontSize=14;" edge="1" parent="1" source="240" target="242">
                    <mxGeometry relative="1" as="geometry"/>
                </mxCell>
                <mxCell id="240" value="number_value = int(number_text)" style="rounded=1;whiteSpace=wrap;html=1;strokeWidth=2;fontSize=18;" vertex="1" parent="1">
                    <mxGeometry x="640" y="600" width="160" height="80" as="geometry"/>
                </mxCell>
                <mxCell id="254" style="edgeStyle=orthogonalEdgeStyle;rounded=0;html=1;fontSize=14;fillColor=#d80073;strokeColor=#A50040;endArrow=none;endFill=0;" edge="1" parent="1" source="242">
                    <mxGeometry relative="1" as="geometry">
                        <mxPoint x="820" y="400" as="targetPoint"/>
                        <Array as="points">
                            <mxPoint x="720" y="460"/>
                            <mxPoint x="820" y="460"/>
                            <mxPoint x="820" y="400"/>
                        </Array>
                    </mxGeometry>
                </mxCell>
                <mxCell id="242" value="number_array&lt;br style=&quot;font-size: 14px;&quot;&gt;.append(number_value)" style="rounded=1;whiteSpace=wrap;html=1;strokeWidth=2;fontSize=14;" vertex="1" parent="1">
                    <mxGeometry x="640" y="480" width="160" height="80" as="geometry"/>
                </mxCell>
                <mxCell id="245" value="&lt;font style=&quot;font-size: 15px&quot;&gt;Yes&lt;/font&gt;" style="text;html=1;align=center;verticalAlign=middle;resizable=0;points=[];autosize=1;strokeColor=none;fillColor=none;fontSize=8;fontFamily=Helvetica;fontColor=default;" vertex="1" parent="1">
                    <mxGeometry x="720" y="700" width="40" height="20" as="geometry"/>
                </mxCell>
                <mxCell id="246" value="&lt;font style=&quot;font-size: 15px&quot;&gt;No&lt;br&gt;&lt;/font&gt;" style="text;html=1;align=center;verticalAlign=middle;resizable=0;points=[];autosize=1;strokeColor=none;fillColor=none;fontSize=8;fontFamily=Helvetica;fontColor=default;" vertex="1" parent="1">
                    <mxGeometry x="790" y="780" width="30" height="20" as="geometry"/>
                </mxCell>
                <mxCell id="253" style="edgeStyle=orthogonalEdgeStyle;rounded=0;html=1;fontSize=14;entryX=0.5;entryY=0;entryDx=0;entryDy=0;fillColor=#d80073;strokeColor=#A50040;" edge="1" parent="1" source="247" target="226">
                    <mxGeometry relative="1" as="geometry">
                        <mxPoint x="820" y="240" as="targetPoint"/>
                        <Array as="points">
                            <mxPoint x="820" y="400"/>
                            <mxPoint x="820" y="80"/>
                            <mxPoint x="520" y="80"/>
                        </Array>
                    </mxGeometry>
                </mxCell>
                <mxCell id="247" value="Show that the &lt;br style=&quot;font-size: 16px&quot;&gt;input is not a &lt;br style=&quot;font-size: 16px&quot;&gt;integer" style="shape=parallelogram;html=1;strokeWidth=2;perimeter=parallelogramPerimeter;whiteSpace=wrap;rounded=1;arcSize=12;size=0.23;fontSize=16;" vertex="1" parent="1">
                    <mxGeometry x="637" y="360" width="160" height="80" as="geometry"/>
                </mxCell>
                <mxCell id="249" value="&lt;font style=&quot;font-size: 15px&quot;&gt;execption&lt;br&gt;&lt;/font&gt;" style="text;html=1;align=center;verticalAlign=middle;resizable=0;points=[];autosize=1;strokeColor=none;fillColor=none;fontSize=8;fontFamily=Helvetica;fontColor=default;" vertex="1" parent="1">
                    <mxGeometry x="580" y="370" width="80" height="20" as="geometry"/>
                </mxCell>
                <mxCell id="257" style="edgeStyle=orthogonalEdgeStyle;rounded=0;html=1;entryX=0;entryY=0.5;entryDx=0;entryDy=0;fontSize=14;endArrow=classic;endFill=1;" edge="1" parent="1" source="250" target="256">
                    <mxGeometry relative="1" as="geometry"/>
                </mxCell>
                <mxCell id="250" value="final_answer = 0" style="rounded=1;whiteSpace=wrap;html=1;strokeWidth=2;fontSize=18;" vertex="1" parent="1">
                    <mxGeometry x="640" y="160" width="160" height="80" as="geometry"/>
                </mxCell>
                <mxCell id="252" value="&lt;font style=&quot;font-size: 15px&quot;&gt;No&lt;br&gt;&lt;/font&gt;" style="text;html=1;align=center;verticalAlign=middle;resizable=0;points=[];autosize=1;strokeColor=none;fillColor=none;fontSize=8;fontFamily=Helvetica;fontColor=default;" vertex="1" parent="1">
                    <mxGeometry x="600" y="180" width="30" height="20" as="geometry"/>
                </mxCell>
                <mxCell id="259" style="edgeStyle=orthogonalEdgeStyle;rounded=0;html=1;entryX=0.5;entryY=0;entryDx=0;entryDy=0;fontSize=14;endArrow=classic;endFill=1;" edge="1" parent="1" source="256" target="258">
                    <mxGeometry relative="1" as="geometry"/>
                </mxCell>
                <mxCell id="274" style="edgeStyle=orthogonalEdgeStyle;rounded=0;html=1;fontSize=16;endArrow=classic;endFill=1;" edge="1" parent="1" source="256" target="273">
                    <mxGeometry relative="1" as="geometry"/>
                </mxCell>
                <mxCell id="256" value="full_equation_text&lt;br&gt;= &quot;&quot;" style="rounded=1;whiteSpace=wrap;html=1;strokeWidth=2;fontSize=18;" vertex="1" parent="1">
                    <mxGeometry x="840" y="160" width="160" height="80" as="geometry"/>
                </mxCell>
                <mxCell id="261" style="edgeStyle=orthogonalEdgeStyle;rounded=0;html=1;entryX=0.5;entryY=0;entryDx=0;entryDy=0;fontSize=13;endArrow=classic;endFill=1;" edge="1" parent="1" source="258" target="260">
                    <mxGeometry relative="1" as="geometry"/>
                </mxCell>
                <mxCell id="258" value="&lt;font style=&quot;font-size: 11px;&quot;&gt;for number in range(0, number_of_loops_integer)&lt;br style=&quot;font-size: 11px;&quot;&gt;&lt;/font&gt;" style="rhombus;whiteSpace=wrap;html=1;rounded=1;fontFamily=Helvetica;fontSize=11;fontColor=default;strokeColor=default;strokeWidth=2;fillColor=default;" vertex="1" parent="1">
                    <mxGeometry x="840" y="280" width="160" height="160" as="geometry"/>
                </mxCell>
                <mxCell id="264" style="edgeStyle=orthogonalEdgeStyle;rounded=0;html=1;entryX=0.5;entryY=0;entryDx=0;entryDy=0;fontSize=13;endArrow=classic;endFill=1;" edge="1" parent="1" source="260" target="263">
                    <mxGeometry relative="1" as="geometry"/>
                </mxCell>
                <mxCell id="267" style="edgeStyle=orthogonalEdgeStyle;rounded=0;html=1;fontSize=13;endArrow=classic;endFill=1;" edge="1" parent="1" source="260" target="266">
                    <mxGeometry relative="1" as="geometry"/>
                </mxCell>
                <mxCell id="260" value="&lt;font style=&quot;font-size: 13px;&quot;&gt;if number == number_of_loops_integer&lt;br style=&quot;font-size: 13px;&quot;&gt;- 1&lt;br style=&quot;font-size: 13px;&quot;&gt;&lt;/font&gt;" style="rhombus;whiteSpace=wrap;html=1;rounded=1;fontFamily=Helvetica;fontSize=13;fontColor=default;strokeColor=default;strokeWidth=2;fillColor=default;" vertex="1" parent="1">
                    <mxGeometry x="840" y="480" width="160" height="160" as="geometry"/>
                </mxCell>
                <mxCell id="262" value="&lt;font style=&quot;font-size: 15px&quot;&gt;Yes&lt;/font&gt;" style="text;html=1;align=center;verticalAlign=middle;resizable=0;points=[];autosize=1;strokeColor=none;fillColor=none;fontSize=8;fontFamily=Helvetica;fontColor=default;" vertex="1" parent="1">
                    <mxGeometry x="920" y="440" width="40" height="20" as="geometry"/>
                </mxCell>
                <mxCell id="270" style="edgeStyle=orthogonalEdgeStyle;rounded=0;html=1;entryX=0.5;entryY=0;entryDx=0;entryDy=0;fontSize=15;endArrow=classic;endFill=1;" edge="1" parent="1" source="263" target="269">
                    <mxGeometry relative="1" as="geometry"/>
                </mxCell>
                <mxCell id="263" value="full_equation_text = full_equation_text + str(number_array[number]) + &quot; = &quot;" style="rounded=1;whiteSpace=wrap;html=1;strokeWidth=2;fontSize=13;" vertex="1" parent="1">
                    <mxGeometry x="840" y="680" width="160" height="80" as="geometry"/>
                </mxCell>
                <mxCell id="265" value="&lt;font style=&quot;font-size: 15px&quot;&gt;Yes&lt;/font&gt;" style="text;html=1;align=center;verticalAlign=middle;resizable=0;points=[];autosize=1;strokeColor=none;fillColor=none;fontSize=8;fontFamily=Helvetica;fontColor=default;" vertex="1" parent="1">
                    <mxGeometry x="920" y="640" width="40" height="20" as="geometry"/>
                </mxCell>
                <mxCell id="271" style="edgeStyle=orthogonalEdgeStyle;rounded=0;html=1;entryX=1;entryY=0.5;entryDx=0;entryDy=0;fontSize=15;endArrow=classic;endFill=1;" edge="1" parent="1" source="266" target="269">
                    <mxGeometry relative="1" as="geometry">
                        <Array as="points">
                            <mxPoint x="1120" y="840"/>
                        </Array>
                    </mxGeometry>
                </mxCell>
                <mxCell id="266" value="full_equation_text = full_equation_text + str(number_array[number]) + &quot; + &quot;" style="rounded=1;whiteSpace=wrap;html=1;strokeWidth=2;fontSize=13;" vertex="1" parent="1">
                    <mxGeometry x="1040" y="680" width="160" height="80" as="geometry"/>
                </mxCell>
                <mxCell id="268" value="&lt;font style=&quot;font-size: 15px&quot;&gt;No&lt;br&gt;&lt;/font&gt;" style="text;html=1;align=center;verticalAlign=middle;resizable=0;points=[];autosize=1;strokeColor=none;fillColor=none;fontSize=8;fontFamily=Helvetica;fontColor=default;" vertex="1" parent="1">
                    <mxGeometry x="1000" y="540" width="30" height="20" as="geometry"/>
                </mxCell>
                <mxCell id="272" style="edgeStyle=orthogonalEdgeStyle;rounded=0;html=1;entryX=0;entryY=0.5;entryDx=0;entryDy=0;fontSize=15;endArrow=classic;endFill=1;" edge="1" parent="1" source="269" target="258">
                    <mxGeometry relative="1" as="geometry">
                        <Array as="points">
                            <mxPoint x="830" y="840"/>
                            <mxPoint x="830" y="360"/>
                        </Array>
                    </mxGeometry>
                </mxCell>
                <mxCell id="269" value="final_answer = final_answer + number_array[number]" style="rounded=1;whiteSpace=wrap;html=1;strokeWidth=2;fontSize=15;" vertex="1" parent="1">
                    <mxGeometry x="840" y="800" width="160" height="80" as="geometry"/>
                </mxCell>
                <mxCell id="275" style="edgeStyle=orthogonalEdgeStyle;rounded=0;html=1;entryX=0;entryY=0.5;entryDx=0;entryDy=0;fontSize=16;endArrow=classic;endFill=1;" edge="1" parent="1" source="273" target="47">
                    <mxGeometry relative="1" as="geometry"/>
                </mxCell>
                <mxCell id="273" value="Show the full&lt;br style=&quot;font-size: 16px;&quot;&gt;equation and the&lt;br style=&quot;font-size: 16px;&quot;&gt;final answer" style="shape=parallelogram;html=1;strokeWidth=2;perimeter=parallelogramPerimeter;whiteSpace=wrap;rounded=1;arcSize=12;size=0.23;fontSize=16;" vertex="1" parent="1">
                    <mxGeometry x="1040" y="160" width="160" height="80" as="geometry"/>
                </mxCell>
            </root>
        </mxGraphModel>
    </diagram>
</mxfile>